# xmcd CD database file
#
# Track frame offsets:
#	150
#	12497
#	24291
#	35101
#	48285
#	61556
#	71507
#	83677
#	103246
#	114945
#	126266
#	137098
#	154484
#	167228
#	186206
#	212381
#	218506
#
# Disc length: 3211 seconds
#
# Revision: 0
# Processed by: cddbd v1.4PL0 Copyright (c) Steve Scherf et al.
# Submitted via: CDex 1.51
#
DISCID=e50c8911
DTITLE=Lightning Hopkins - The Best of Lightning Hopkins
DYEAR=1900
DGENRE=Blues
TTITLE0=Whiskey Blues
TTITLE1=Come On Baby
TTITLE2=Grosebeck Blues
TTITLE3=Mojo Hand
TTITLE4=Going Home Blues
TTITLE5=Jesus Will You Come By Here
TTITLE6=Tim Moore's Farm
TTITLE7=Have You Ever Loved A Woman
TTITLE8=Big Mama Jump
TTITLE9=Mr. Crow and Bill Quinn
TTITLE10=Unsuccessful Blues
TTITLE11=Bald Headed Woman
TTITLE12=Zolo Go
TTITLE13=Please Settle In Vietnam
TTITLE14=Short Haired Woman
TTITLE15=The Dice Game
TTITLE16=Once Was a Gambler
EXTD=
EXTT0=
EXTT1=
EXTT2=
EXTT3=
EXTT4=
EXTT5=
EXTT6=
EXTT7=
EXTT8=
EXTT9=
EXTT10=
EXTT11=
EXTT12=
EXTT13=
EXTT14=
EXTT15=
EXTT16=
PLAYORDER=
